  <svg
    width="16"
    height="16"
    viewBox="0 0 16 16"
    fill="none"
    xmlns="http://www.w3.org/2000/svg"
  >
    <path
      fillRule="evenodd"
      clipRule="evenodd"
      d="M11.0004 3.19922C11.1595 3.19922 11.3121 3.26243 11.4247 3.37495L13.4247 5.37495C13.659 5.60927 13.659 5.98917 13.4247 6.22348C13.1903 6.4578 12.8104 6.4578 12.5761 6.22348L11.6004 5.24775V12.1992C11.6004 12.5306 11.3318 12.7992 11.0004 12.7992C10.669 12.7992 10.4004 12.5306 10.4004 12.1992V5.24775L9.42465 6.22348C9.19034 6.4578 8.81044 6.4578 8.57613 6.22348C8.34181 5.98917 8.34181 5.60927 8.57613 5.37495L10.5761 3.37495C10.6886 3.26243 10.8413 3.19922 11.0004 3.19922ZM5.00039 3.19922C5.33176 3.19922 5.60039 3.46785 5.60039 3.79922L5.60039 10.7507L6.57613 9.77495C6.81044 9.54064 7.19034 9.54064 7.42466 9.77495C7.65897 10.0093 7.65897 10.3892 7.42466 10.6235L5.42466 12.6235C5.31213 12.736 5.15952 12.7992 5.00039 12.7992C4.84126 12.7992 4.68865 12.736 4.57613 12.6235L2.57613 10.6235C2.34181 10.3892 2.34181 10.0093 2.57613 9.77495C2.81044 9.54064 3.19034 9.54064 3.42465 9.77495L4.40039 10.7507L4.40039 3.79922C4.40039 3.46785 4.66902 3.19922 5.00039 3.19922Z"
      fill="#99A2AD"
    />
  </svg>